<svg width="300" height="300" viewBox="0 0 300 300" fill="none" xmlns="http://www.w3.org/2000/svg">
<rect width="300" height="300" fill="#1A88C9"/>
<path d="M37 138.174V177.054V226.302C37 228.894 39.0977 231 41.6795 231H103.32C105.902 231 108 228.894 108 226.302V187.584C108 184.992 105.902 182.886 103.32 182.886H89.6045C87.0227 182.886 84.925 184.992 84.925 187.584V203.298C84.925 205.89 82.8273 207.834 80.2455 207.834H64.7545C62.1727 207.834 60.075 205.89 60.075 203.298V177.054V166.038C60.075 163.446 62.1727 161.34 64.7545 161.34H79.9227C82.5045 161.34 84.6023 159.234 84.6023 156.642V142.872C84.6023 140.28 82.5045 138.174 79.9227 138.174H64.7545C62.1727 138.174 60.075 136.068 60.075 133.476V96.864C60.075 94.272 62.1727 92.166 64.7545 92.166H80.2455C82.8273 92.166 84.925 94.272 84.925 96.864V112.092C84.925 114.684 87.0227 116.79 89.6045 116.79H103.32C105.902 116.79 108 114.684 108 112.092V73.698C108 71.106 105.902 69 103.32 69H41.6795C39.0977 69 37 71.106 37 73.698V138.174Z" fill="white"/>
<path d="M118.745 128.397H132.655C135.273 128.397 137.4 126.301 137.4 123.722V108.729C137.4 106.15 139.527 104.054 142.145 104.054H157.855C160.473 104.054 162.6 106.15 162.6 108.729V121.143C162.6 122.593 162.109 123.883 160.964 124.689L115.636 164.509C114.491 165.477 114 166.766 114 168.056V214.325C114 216.904 116.127 219 118.745 219H181.255C183.873 219 186 216.904 186 214.325V175.794C186 173.215 183.873 171.119 181.255 171.119H167.345C164.727 171.119 162.6 173.215 162.6 175.794V191.271C162.6 193.85 160.473 195.946 157.855 195.946H142.145C139.527 195.946 137.4 193.85 137.4 191.271V178.374C137.4 177.084 137.891 175.794 138.873 174.827L184.364 135.007C185.345 134.201 186 132.911 186 131.46V85.6752C186 83.0958 183.873 81 181.255 81H118.745C116.127 81 114 83.0958 114 85.6752V123.722C114 126.301 116.127 128.397 118.745 128.397Z" fill="white"/>
<path d="M227.5 150.245C221.691 136.686 215.559 117.083 215.075 84.5741C215.075 81.9603 212.977 80 210.395 80H196.68C194.098 80 192 82.1237 192 84.7374C192.645 131.132 203.618 154.329 211.041 169.848C213.784 175.729 215.882 180.303 215.882 183.08V215.263C215.882 217.876 217.98 220 220.561 220H234.277C236.859 220 238.957 217.876 238.957 215.263V183.08C238.957 180.303 241.216 175.729 243.959 169.848C251.22 154.329 262.193 131.132 263 84.7374C263 82.1237 260.902 80 258.32 80H244.605C242.023 80 239.925 81.9603 239.925 84.5741C239.28 117.083 233.148 136.686 227.5 150.245Z" fill="white"/>
</svg>
