<svg width="420" height="126" viewBox="0 0 420 126" fill="none" xmlns="http://www.w3.org/2000/svg">
<path d="M0 53.9344V83.7392V121.492C0 123.479 1.61443 125.093 3.60142 125.093H51.0408C53.0278 125.093 54.6422 123.479 54.6422 121.492V91.8114C54.6422 89.8244 53.0278 88.21 51.0408 88.21H40.4849C38.4979 88.21 36.8835 89.8244 36.8835 91.8114V103.858C36.8835 105.845 35.2691 107.335 33.2821 107.335H21.3601C19.3731 107.335 17.7587 105.845 17.7587 103.858V83.7393V75.2945C17.7587 73.3076 19.3731 71.6931 21.3601 71.6931H33.0337C35.0207 71.6931 36.6351 70.0787 36.6351 68.0917V57.5358C36.6351 55.5488 35.0207 53.9344 33.0337 53.9344H21.3601C19.3731 53.9344 17.7587 52.32 17.7587 50.333V22.2668C17.7587 20.2798 19.3731 18.6653 21.3601 18.6653H33.2821C35.2691 18.6653 36.8835 20.2798 36.8835 22.2668V33.9403C36.8835 35.9273 38.4979 37.5417 40.4849 37.5417H51.0408C53.0278 37.5417 54.6422 35.9273 54.6422 33.9403V4.50803C54.6422 2.52104 53.0278 0.906616 51.0408 0.906616H3.60142C1.61443 0.906616 0 2.52104 0 4.50803V53.9344Z" fill="white"/>
<path d="M64.453 46.359H75.0089C76.9958 46.359 78.6103 44.7445 78.6103 42.7575V31.2082C78.6103 29.2212 80.2247 27.6067 82.2117 27.6067H94.1336C96.1206 27.6067 97.7351 29.2212 97.7351 31.2082V40.7706C97.7351 41.8882 97.3625 42.8817 96.4932 43.5027L62.0934 74.1768C61.2241 74.9219 60.8516 75.9154 60.8516 76.9089V112.551C60.8516 114.538 62.466 116.152 64.453 116.152H111.892C113.879 116.152 115.494 114.538 115.494 112.551V82.8699C115.494 80.8829 113.879 79.2685 111.892 79.2685H101.336C99.3495 79.2685 97.7351 80.8829 97.7351 82.8699V94.7918C97.7351 96.7788 96.1206 98.3932 94.1336 98.3932H82.2117C80.2247 98.3932 78.6103 96.7788 78.6103 94.7918V84.8569C78.6103 83.8634 78.9828 82.8699 79.728 82.1248L114.252 51.4506C114.997 50.8297 115.494 49.8362 115.494 48.7185V13.4494C115.494 11.4624 113.879 9.84802 111.892 9.84802H64.453C62.466 9.84802 60.8516 11.4624 60.8516 13.4494V42.7575C60.8516 44.7445 62.466 46.359 64.453 46.359Z" fill="white"/>
<path d="M149.024 63.2484C144.554 52.9409 139.834 38.0384 139.462 13.3253C139.462 11.3383 137.847 9.84802 135.86 9.84802H125.305C123.318 9.84802 121.703 11.4624 121.703 13.4494C122.2 48.7185 130.645 66.3531 136.357 78.1508C138.468 82.6215 140.083 86.0988 140.083 88.2099V112.675C140.083 114.662 141.697 116.276 143.684 116.276H154.24C156.227 116.276 157.842 114.662 157.842 112.675V88.2099C157.842 86.0988 159.58 82.6215 161.691 78.1508C167.28 66.3531 175.724 48.7185 176.345 13.4494C176.345 11.4624 174.731 9.84802 172.744 9.84802H162.188C160.201 9.84802 158.587 11.3383 158.587 13.3253C158.09 38.0384 153.371 52.9409 149.024 63.2484Z" fill="white"/>
<path d="M233.968 0.906555H223.412C221.425 0.906555 219.811 2.52099 219.811 4.50798V121.492C219.811 123.479 221.425 125.093 223.412 125.093H233.968C235.955 125.093 237.57 123.479 237.57 121.492V4.50798C237.57 2.52099 235.955 0.906555 233.968 0.906555Z" fill="white"/>
<path d="M273.708 9.84802H247.38C245.393 9.84802 243.779 11.4624 243.779 13.4494V40.5222V80.6345V112.675C243.779 114.662 245.393 116.276 247.38 116.276H257.936C259.923 116.276 261.538 114.662 261.538 112.675V84.236C261.538 82.249 263.152 80.6345 265.139 80.6345H273.708C287.368 80.6345 298.421 69.5819 298.421 55.9214V51.2023V40.5222V34.5612C298.421 20.9006 287.368 9.84802 273.708 9.84802ZM280.662 51.2023V55.9214C280.662 59.7711 277.558 62.8758 273.708 62.8758H265.139C263.152 62.8758 261.538 61.2614 261.538 59.2744V40.5222V31.2081C261.538 29.2212 263.152 27.6067 265.139 27.6067H273.708C277.558 27.6067 280.662 30.7114 280.662 34.5612V40.5222V51.2023Z" fill="white"/>
<path d="M308.232 27.6067H319.409C321.396 27.6067 323.01 29.2212 323.01 31.2082V112.675C323.01 114.662 324.624 116.276 326.611 116.276H337.167C339.154 116.276 340.769 114.662 340.769 112.675V31.2082C340.769 29.2212 342.383 27.6067 344.37 27.6067H355.547C357.534 27.6067 359.148 25.9923 359.148 24.0053V13.4494C359.148 11.4624 357.534 9.84802 355.547 9.84802H308.232C306.245 9.84802 304.63 11.4624 304.63 13.4494V24.0053C304.63 25.9923 306.245 27.6067 308.232 27.6067Z" fill="white"/>
<path d="M392.679 87.4648C388.084 73.3075 383.365 51.4506 383.117 13.3253C383.117 11.4625 381.502 9.84802 379.515 9.84802H368.959C366.972 9.84802 365.358 11.4624 365.358 13.4494C365.73 68.4642 375.417 93.1774 380.757 106.59C381.875 109.322 382.744 111.805 383.365 113.668C383.738 115.158 385.228 116.276 386.718 116.276H398.516C400.13 116.276 401.496 115.158 401.993 113.668C402.49 111.805 403.483 109.322 404.601 106.59C409.817 93.1774 419.503 68.4642 420 13.4494C420 11.4624 418.386 9.84802 416.399 9.84802H405.843C403.856 9.84802 402.241 11.4625 402.241 13.3253C401.993 51.4506 397.15 73.3075 392.679 87.4648Z" fill="white"/>
</svg>
